{
  "source": "C:\\Users\\Peter\\Desktop\\stuff\\MIUN\\quantitative_research\\video_compression\\videos\\BVI-HD\\BVI-HD_CDVL_videos\\ORIG\\Lightreef_1920x1080_30fps.mp4",
  "output": "C:\\Users\\Peter\\Desktop\\stuff\\MIUN\\quantitative_research\\video_compression\\compressed_videos\\BVI-HD\\av1\\1\\Lightreef_1920x1080_30fps_av1.mkv",
  "codec": "av1",
  "ok": "Input #0, mov,mp4,m4a,3gp,3g2,mj2, from 'C:\\Users\\Peter\\Desktop\\stuff\\MIUN\\quantitative_research\\video_compression\\videos\\BVI-HD\\BVI-HD_CDVL_videos\\ORIG\\Lightreef_1920x1080_30fps.mp4':\n  Metadata:\n    major_brand     : isom\n    minor_version   : 512\n    compatible_brands: isomiso2avc1mp41\n    encoder         : Lavf54.28.101\n  Duration: 00:00:05.00, start: 0.000000, bitrate: 361719 kb/s\n  Stream #0:0[0x1](und): Video: h264 (High 4:4:4 Predictive) (avc1 / 0x31637661), yuv420p(progressive), 1920x1080, 361715 kb/s, 30 fps, 30 tbr, 30 tbn (default)\n    Metadata:\n      handler_name    : VideoHandler\n      vendor_id       : [0][0][0][0]\n[out#0/matroska @ 000002389d5c9700] Codec AVOption b:a (set bitrate (in bits/s)) has not been used for any stream. The most likely reason is either wrong type (e.g. a video option with no video streams) or that it is a private option of some decoder which was not actually used for any stream.\nStream mapping:\n  Stream #0:0 -> #0:0 (h264 (native) -> av1 (libsvtav1))\nPress [q] to stop, [?] for help\nSvt[info]: -------------------------------------------\nSvt[info]: SVT [version]:\tSVT-AV1 Encoder Lib v3.1.0-19-g6ecfe8ec\nSvt[info]: SVT [build]  :\tGCC 15.2.0\t 64 bit\nSvt[info]: LIB Build date: Aug 17 2025 11:37:13\nSvt[info]: -------------------------------------------\nSvt[info]: Level of Parallelism: 5\nSvt[info]: Number of PPCS 93\nSvt[info]: [asm level on system : up to avx2]\nSvt[info]: [asm level selected : up to avx2]\nSvt[info]: -------------------------------------------\nSvt[info]: SVT [config]: main profile\ttier (auto)\tlevel (auto)\nSvt[info]: SVT [config]: width / height / fps numerator / fps denominator \t\t: 1920 / 1080 / 30 / 1\nSvt[info]: SVT [config]: bit-depth / color format \t\t\t\t\t: 8 / YUV420\nSvt[info]: SVT [config]: preset / tune / pred struct \t\t\t\t\t: 4 / PSNR / random access\nSvt[info]: SVT [config]: gop size / mini-gop size / key-frame type \t\t\t: 161 / 16 / key frame\nSvt[info]: SVT [config]: BRC mode / target bitrate (kbps)\t\t\t\t: VBR / 1000 \nSvt[info]: SVT [config]: AQ mode / Variance Boost \t\t\t\t\t: 2 / 0\nSvt[info]: SVT [config]: sharpness / luminance-based QP bias \t\t\t\t: 0 / 0\nSvt[info]: SVT [config]: QP scale compress strength \t\t\t\t\t: 0\nSvt[info]: -------------------------------------------\nOutput #0, matroska, to 'C:\\Users\\Peter\\Desktop\\stuff\\MIUN\\quantitative_research\\video_compression\\compressed_videos\\BVI-HD\\av1\\1\\Lightreef_1920x1080_30fps_av1.mkv':\n  Metadata:\n    major_brand     : isom\n    minor_version   : 512\n    compatible_brands: isomiso2avc1mp41\n    encoder         : Lavf62.3.100\n  Stream #0:0(und): Video: av1 (AV01 / 0x31305641), yuv420p(tv, progressive), 1920x1080, q=2-31, 1000 kb/s, 30 fps, 1k tbn (default)\n    Metadata:\n      encoder         : Lavc62.11.100 libsvtav1\n      handler_name    : VideoHandler\n      vendor_id       : [0][0][0][0]\n    Side data:\n      cpb: bitrate max/min/avg: 0/0/1000000 buffer size: 1000000 vbv_delay: N/A\nframe=    0 fps=0.0 q=0.0 size=       0KiB time=N/A bitrate=N/A speed=N/A elapsed=0:00:01.05    \nframe=    0 fps=0.0 q=0.0 size=       0KiB time=N/A bitrate=N/A speed=N/A elapsed=0:00:01.63    \nframe=    0 fps=0.0 q=0.0 size=       0KiB time=N/A bitrate=N/A speed=N/A elapsed=0:00:02.20    \nframe=    0 fps=0.0 q=0.0 size=       0KiB time=N/A bitrate=N/A speed=N/A elapsed=0:00:02.77    \nframe=    0 fps=0.0 q=0.0 size=       0KiB time=N/A bitrate=N/A speed=N/A elapsed=0:00:03.32    \nframe=    0 fps=0.0 q=0.0 size=       0KiB time=N/A bitrate=N/A speed=N/A elapsed=0:00:03.87    \nframe=    1 fps=0.2 q=41.0 size=       1KiB time=00:00:00.00 bitrate=N/A speed=   0x elapsed=0:00:04.40    \nframe=    1 fps=0.2 q=41.0 size=       1KiB time=00:00:00.00 bitrate=N/A speed=   0x elapsed=0:00:04.92    \nframe=    1 fps=0.2 q=41.0 size=       1KiB time=00:00:00.00 bitrate=N/A speed=   0x elapsed=0:00:05.47    \nframe=    6 fps=1.0 q=58.0 size=       1KiB time=00:00:00.16 bitrate=  34.2kbits/s speed=0.0278x elapsed=0:00:05.98    \nframe=   12 fps=1.8 q=57.0 size=       1KiB time=00:00:00.33 bitrate=  17.1kbits/s speed=0.0511x elapsed=0:00:06.52    \nframe=   18 fps=2.5 q=56.0 size=       1KiB time=00:00:00.56 bitrate=  10.1kbits/s speed=0.0801x elapsed=0:00:07.07    \nframe=   22 fps=2.9 q=56.0 size=       1KiB time=00:00:00.70 bitrate=   8.1kbits/s speed=0.0921x elapsed=0:00:07.60    \nframe=   26 fps=3.2 q=58.0 size=       1KiB time=00:00:00.83 bitrate=   6.8kbits/s speed=0.102x elapsed=0:00:08.13    \nframe=   35 fps=4.0 q=58.0 size=       1KiB time=00:00:01.13 bitrate=   5.0kbits/s speed=0.131x elapsed=0:00:08.68    \nframe=   42 fps=4.5 q=59.0 size=       1KiB time=00:00:01.36 bitrate=   4.2kbits/s speed=0.148x elapsed=0:00:09.26    \nframe=   48 fps=4.9 q=59.0 size=       1KiB time=00:00:01.56 bitrate=   3.6kbits/s speed=0.16x elapsed=0:00:09.79    \nframe=   57 fps=5.5 q=53.0 size=       1KiB time=00:00:01.86 bitrate=   3.1kbits/s speed=0.181x elapsed=0:00:10.33    \nframe=   61 fps=5.6 q=56.0 size=       1KiB time=00:00:02.00 bitrate=   2.9kbits/s speed=0.184x elapsed=0:00:10.88    \nframe=   65 fps=5.7 q=47.0 size=       1KiB time=00:00:02.13 bitrate=   2.7kbits/s speed=0.187x elapsed=0:00:11.40    \nframe=   73 fps=6.1 q=54.0 size=       1KiB time=00:00:02.40 bitrate=   2.4kbits/s speed=0.201x elapsed=0:00:11.92    \nframe=   79 fps=6.3 q=59.0 size=       1KiB time=00:00:02.53 bitrate=   2.3kbits/s speed=0.204x elapsed=0:00:12.44    \nframe=   85 fps=6.5 q=57.0 size=       1KiB time=00:00:02.80 bitrate=   2.0kbits/s speed=0.216x elapsed=0:00:12.98    \nframe=   93 fps=6.9 q=57.0 size=       1KiB time=00:00:03.06 bitrate=   1.9kbits/s speed=0.227x elapsed=0:00:13.49    \nframe=  101 fps=7.2 q=58.0 size=       1KiB time=00:00:03.33 bitrate=   1.7kbits/s speed=0.238x elapsed=0:00:14.01    \nframe=  109 fps=7.5 q=58.0 size=       1KiB time=00:00:03.60 bitrate=   1.6kbits/s speed=0.248x elapsed=0:00:14.53    \nframe=  117 fps=7.8 q=58.0 size=       1KiB time=00:00:03.86 bitrate=   1.5kbits/s speed=0.257x elapsed=0:00:15.05    \nframe=  121 fps=7.8 q=55.0 size=       1KiB time=00:00:04.00 bitrate=   1.4kbits/s speed=0.257x elapsed=0:00:15.57    \nframe=  129 fps=8.0 q=48.0 size=       1KiB time=00:00:04.26 bitrate=   1.3kbits/s speed=0.265x elapsed=0:00:16.09    \nframe=  141 fps=8.5 q=63.0 size=       1KiB time=00:00:04.66 bitrate=   1.2kbits/s speed=0.281x elapsed=0:00:16.62    \n[out#0/matroska @ 000002389d5c9700] video:547KiB audio:0KiB subtitle:0KiB other streams:0KiB global headers:0KiB muxing overhead: 0.257831%\nframe=  150 fps=9.0 q=63.0 Lsize=     548KiB time=00:00:04.96 bitrate= 903.8kbits/s speed=0.298x elapsed=0:00:16.66    \n",
  "seconds": 17.138082265853882,
  "probe_out": {}
}